<svg width="32" height="31" viewBox="0 0 32 31" fill="none" xmlns="http://www.w3.org/2000/svg">
<g opacity="0.3">
<path d="M6.68555 5.24219L25.723 26.1834" stroke="black" stroke-width="1.7" stroke-linecap="round" stroke-linejoin="round"/>
<path d="M19.4048 19.2343C18.5314 20.0344 17.3887 20.4762 16.2042 20.4717C15.2436 20.4716 14.3055 20.1808 13.5132 19.6376C12.721 19.0944 12.1116 18.3241 11.7653 17.4281C11.419 16.5321 11.352 15.5523 11.573 14.6175C11.794 13.6826 12.2927 12.8365 13.0035 12.1904" stroke="black" stroke-width="1.7" stroke-linecap="round" stroke-linejoin="round"/>
<path d="M9.779 8.64551C4.92445 11.0966 2.87793 15.7132 2.87793 15.7132C2.87793 15.7132 6.68541 24.28 16.2041 24.28C18.4346 24.2982 20.6372 23.7842 22.6293 22.7808" stroke="black" stroke-width="1.7" stroke-linecap="round" stroke-linejoin="round"/>
<path d="M25.7933 20.6026C28.3872 18.2824 29.5294 15.7124 29.5294 15.7124C29.5294 15.7124 25.7219 7.14554 16.2032 7.14554C15.378 7.14391 14.5541 7.21157 13.7402 7.34781" stroke="black" stroke-width="1.7" stroke-linecap="round" stroke-linejoin="round"/>
<path d="M17.0957 11.0371C18.1078 11.2289 19.0301 11.7447 19.7234 12.5066C20.4167 13.2686 20.8433 14.2353 20.9389 15.261" stroke="black" stroke-width="1.7" stroke-linecap="round" stroke-linejoin="round"/>
</g>
</svg>
